<?xml version="1.0" standalone="no"?>
<!DOCTYPE svg PUBLIC "-//W3C//DTD SVG 1.1//EN" "http://www.w3.org/Graphics/SVG/1.1/DTD/svg11.dtd" >
<svg xmlns="http://www.w3.org/2000/svg" xmlns:xlink="http://www.w3.org/1999/xlink" version="1.1">
<metadata></metadata>
<defs>
<font id="lovatolight" horiz-adv-x="1022" >
<font-face units-per-em="2048" ascent="1638" descent="-410" />
<missing-glyph horiz-adv-x="467" />
<glyph horiz-adv-x="0" />
<glyph horiz-adv-x="682" />
<glyph unicode=" "  horiz-adv-x="467" />
<glyph unicode="&#x09;" horiz-adv-x="467" />
<glyph unicode="&#xa0;" horiz-adv-x="467" />
<glyph unicode="!" horiz-adv-x="389" d="M102 61q0 38 27 66.5t65 28.5q36 0 64.5 -29t28.5 -66q0 -36 -28.5 -62.5t-64.5 -26.5q-39 0 -65.5 26.5t-26.5 62.5zM117 1266h155l-60 -918h-30z" />
<glyph unicode="&#x22;" horiz-adv-x="750" d="M93 1244q0 43 30.5 75.5t75.5 32.5q43 0 74.5 -32.5t31.5 -75.5l-96 -397h-19zM426 1244q0 43 30.5 75.5t75.5 32.5q43 0 75 -33t32 -75l-97 -397h-19z" />
<glyph unicode="#" horiz-adv-x="1158" d="M102 274v91h188l53 220h-185v91h205l61 255h107l-62 -255h279l62 255h106l-61 -255h201v-91h-222l-52 -220h218v-91h-240l-66 -274h-106l65 274h-279l-65 -274h-106l65 274h-166zM397 365h279l52 220h-279z" />
<glyph unicode="$" d="M149 145v164h20q55 -88 150 -136t208 -48q118 0 182 59t64 142q0 36 -7 63t-27.5 52.5t-45 44.5t-72.5 43.5t-96 45t-130 52.5q-118 48 -180 121t-62 190q0 130 101 216.5t245 91.5v89h102v-95q140 -17 242 -88v-156h-18q-48 66 -132 104.5t-175 38.5q-104 0 -171.5 -56 t-67.5 -143q0 -24 5 -45.5t12 -39.5t23 -35.5t29.5 -30.5t40.5 -29t46.5 -26.5t57.5 -27.5t63.5 -27.5t74.5 -30.5q61 -24 105.5 -51t82.5 -63.5t58 -86t20 -110.5q0 -112 -77.5 -199t-218.5 -110v-97h-102v89q-101 1 -192.5 34.5t-157.5 90.5z" />
<glyph unicode="%" horiz-adv-x="1608" d="M78 964q0 139 95 234.5t231 95.5t231 -95.5t95 -234.5t-95 -234t-231 -95t-231 95t-95 234zM186 964q0 -93 59 -164.5t159 -71.5t159 71.5t59 164.5t-59 165t-159 72t-159 -72t-59 -165zM315 0l873 1266h115l-873 -1266h-115zM879 302q0 139 95 234t231 95t230.5 -95 t94.5 -234t-94.5 -234.5t-230.5 -95.5t-231 95.5t-95 234.5zM987 302q0 -93 59 -165t159 -72t158.5 72t58.5 165t-58.5 164.5t-158.5 71.5t-159 -71.5t-59 -164.5z" />
<glyph unicode="&#x26;" horiz-adv-x="1385" d="M58 305q0 59 18 109.5t45.5 86.5t69.5 68.5t80.5 53.5t87.5 42q-164 183 -164 339q0 124 97 207t227 83t224 -83t95 -207q1 -52 -16.5 -101t-44.5 -86t-64.5 -71t-71.5 -56.5t-71 -41.5l-21 -11q116 -111 291 -252q51 99 123 270v17h223v-20l-136 -75q-78 -170 -130 -259 q193 -155 264 -219l181 -75v-24h-244q-138 121 -261 222q-85 -122 -185.5 -186t-233.5 -64q-70 0 -138.5 24.5t-123 67.5t-88 106.5t-33.5 134.5zM171 320q0 -112 85.5 -179t195.5 -67q104 0 183 54t147 157q-263 218 -348 300q-49 -22 -80.5 -38t-70 -41t-60 -50t-37 -60 t-15.5 -76zM317 1005q0 -119 158 -292q238 102 238 292q0 67 -58.5 126t-140.5 59t-139.5 -54t-57.5 -131z" />
<glyph unicode="'" horiz-adv-x="417" d="M102 1318q0 43 31 75.5t76 32.5q43 0 74.5 -32.5t31.5 -75.5l-97 -396h-19z" />
<glyph unicode="(" horiz-adv-x="588" d="M102 454q0 256 104.5 495t255.5 393l16 -26q-255 -458 -255 -862q0 -409 263 -873l-13 -22q-155 150 -263 392.5t-108 502.5z" />
<glyph unicode=")" horiz-adv-x="588" d="M102 -419q263 464 263 873q0 404 -255 862l17 26q151 -154 255 -393t104 -495q0 -260 -108 -502.5t-263 -392.5z" />
<glyph unicode="*" horiz-adv-x="722" d="M102 914l60 9l151 79l-151 76l-60 9l54 93l39 -44l142 -92l-9 168l-21 56h108l-20 -56l-10 -168l142 92l39 44l54 -93l-60 -9l-150 -76l150 -79l60 -9l-54 -93l-39 45l-142 91l10 -168l20 -55h-108l21 55l9 168l-142 -91l-39 -45z" />
<glyph unicode="+" horiz-adv-x="906" d="M76 477v93h328v313h99v-313h327v-93h-327v-315h-99v315h-328z" />
<glyph unicode="," horiz-adv-x="413" d="M47 -270q71 81 105 199t29 227h171q0 -101 -66 -224t-163 -202h-76z" />
<glyph unicode="-" horiz-adv-x="679" d="M84 484v101h512v-101h-512z" />
<glyph unicode="." horiz-adv-x="389" d="M102 61q0 38 27 66.5t65 28.5q36 0 64.5 -29t28.5 -66q0 -36 -28.5 -62.5t-64.5 -26.5q-39 0 -65.5 26.5t-26.5 62.5z" />
<glyph unicode="/" horiz-adv-x="647" d="M-56 -261l648 1648h112l-648 -1648h-112z" />
<glyph unicode="0" d="M76 633q0 187 53.5 337t153.5 237t229 87q128 0 227.5 -86.5t153 -237t53.5 -337.5q0 -185 -53.5 -335t-153 -238t-227.5 -88q-129 0 -229 88t-153.5 238t-53.5 335zM207 633q0 -151 33.5 -274t104 -200t167.5 -77q96 0 166 77t103.5 200t33.5 274q0 154 -33.5 277 t-103.5 198.5t-166 75.5q-97 0 -167.5 -75.5t-104 -198.5t-33.5 -277z" />
<glyph unicode="1" d="M253 1171v22l320 107h23v-1159l227 -121v-20h-564v20l229 121v954z" />
<glyph unicode="2" d="M102 0v22q244 286 512 633q63 82 96 150t33 135q0 115 -68.5 179.5t-190.5 64.5q-103 0 -184.5 -58t-131.5 -147h-19v175q58 64 151.5 102t191.5 38q167 0 274 -91t107 -257q0 -52 -18.5 -107.5t-45.5 -104.5t-84 -124.5t-104.5 -133.5t-139.5 -168t-159 -194h443 l104 124h19v-238h-786z" />
<glyph unicode="3" d="M141 91v170h23q70 -94 149 -138.5t197 -44.5q80 0 143 25.5t103.5 84t40.5 143.5q0 126 -82 191.5t-205 65.5h-123v108h123q114 0 187.5 69t73.5 175t-73.5 175t-187.5 69q-184 0 -294 -141h-22v156q137 95 316 95q77 0 146 -21.5t124.5 -62t88 -107t32.5 -150.5 q0 -105 -55.5 -174.5t-152.5 -128.5q92 -29 163 -112.5t71 -200.5q0 -167 -119.5 -268t-315.5 -101q-184 0 -351 123z" />
<glyph unicode="4" d="M43 339v26l691 910h18v-832h216l-18 -104h-198v-240l144 -79v-20h-406v20l145 79v240h-592zM227 443h408v521z" />
<glyph unicode="5" d="M143 125v145h23q34 -47 60 -75t67 -58.5t94.5 -44.5t122.5 -14q121 0 203 82.5t82 219.5t-82 217.5t-203 80.5q-96 0 -167 -30t-138 -84l-21 9l69 693h620l-15 -115h-514l-39 -408q6 2 38 13t49 16t47 10.5t56 5.5q73 0 137 -15t118 -47.5t93 -80t60.5 -114.5t21.5 -149 q0 -184 -122 -299t-306 -115q-67 0 -123.5 14t-103 43.5t-69 47.5t-58.5 52z" />
<glyph unicode="6" d="M115 389q0 123 53 234.5t199 290.5l285 352h158l-514 -596q53 54 120.5 79.5t129.5 25.5q169 0 282.5 -103t113.5 -283q0 -120 -59 -218.5t-153 -151.5t-199 -53q-184 0 -300 115.5t-116 307.5zM246 372q0 -122 80.5 -209t204.5 -87q123 0 202 87t79 209q0 123 -79 208 t-202 85q-124 0 -204.5 -85.5t-80.5 -207.5z" />
<glyph unicode="7" d="M155 1071v195h791v-19l-570 -1247h-140l553 1156h-532l-82 -85h-20z" />
<glyph unicode="8" d="M108 337q0 59 18 109.5t45 85t63 62t67 43t62 24.5q-37 14 -72.5 37t-70.5 58.5t-56 87.5t-21 113q0 140 103.5 238.5t265.5 98.5q161 0 264 -98.5t103 -238.5q0 -61 -21 -113t-55.5 -87t-70 -58.5t-73.5 -37.5q31 -10 62 -25t68 -42.5t64.5 -61.5t46 -85t18.5 -110 q0 -155 -118.5 -260t-287.5 -105q-170 0 -287 104.5t-117 260.5zM238 343q0 -115 81 -188t193 -73q113 0 194.5 73t81.5 188q0 113 -82 188.5t-194 75.5q-108 0 -191 -75.5t-83 -188.5zM272 950q0 -99 69.5 -166t168.5 -67t168.5 67t69.5 166q0 100 -69 167t-169 67 t-169 -67t-69 -167z" />
<glyph unicode="9" d="M99 877q0 120 59 218.5t153 151.5t199 53q184 0 299.5 -115.5t115.5 -307.5q0 -124 -53 -235t-198 -290l-285 -352h-158l514 596q-53 -54 -120.5 -79t-129.5 -25q-169 0 -282.5 102.5t-113.5 282.5zM229 894q0 -123 79 -208t202 -85q124 0 204.5 85.5t80.5 207.5 t-80.5 209t-204.5 87q-123 0 -202 -87t-79 -209z" />
<glyph unicode=":" horiz-adv-x="389" d="M93 61q0 38 26.5 66.5t64.5 28.5q36 0 64.5 -29t28.5 -66q0 -36 -28.5 -62.5t-64.5 -26.5q-38 0 -64.5 26t-26.5 63zM93 750q0 38 26.5 66.5t64.5 28.5q36 0 64.5 -29t28.5 -66q0 -36 -28.5 -62.5t-64.5 -26.5q-38 0 -64.5 26.5t-26.5 62.5z" />
<glyph unicode=";" horiz-adv-x="428" d="M9 -270q71 81 105 199t29 227h172q0 -101 -66 -224t-163 -202h-77zM141 750q0 38 27 66.5t65 28.5q36 0 64.5 -29t28.5 -66q0 -36 -28.5 -62.5t-64.5 -26.5q-39 0 -65.5 26.5t-26.5 62.5z" />
<glyph unicode="&#x3c;" horiz-adv-x="917" d="M76 458v15l710 449v-129l-550 -328l550 -327v-129z" />
<glyph unicode="=" horiz-adv-x="910" d="M78 320v93h754v-93h-754zM78 605v93h754v-93h-754z" />
<glyph unicode="&#x3e;" horiz-adv-x="917" d="M132 9v129l549 327l-549 328v129l710 -449v-15z" />
<glyph unicode="?" horiz-adv-x="875" d="M102 1000v165q69 61 142.5 95t170.5 34q161 0 259.5 -88.5t98.5 -231.5q0 -60 -19.5 -111.5t-52 -90t-71.5 -74t-79.5 -71.5t-75.5 -74.5t-60.5 -91t-32.5 -113.5h-32q0 84 30.5 159t73.5 130.5t86 107.5t73.5 111t30.5 120q0 101 -67 158.5t-167 57.5q-42 0 -80 -13 t-64 -29t-56 -46.5t-44.5 -49t-40.5 -54.5h-23zM270 61q0 38 26.5 66.5t64.5 28.5q36 0 64.5 -29t28.5 -66q0 -36 -28.5 -62.5t-64.5 -26.5q-39 0 -65 26t-26 63z" />
<glyph unicode="@" horiz-adv-x="1696" d="M78 449q0 180 60.5 333t167 259t256 165.5t322.5 59.5q148 0 282.5 -51t234 -139.5t158.5 -214.5t59 -269q0 -120 -31.5 -219t-84 -162t-119 -97t-139.5 -34q-169 0 -211 162q-54 -76 -120 -119t-161 -43q-63 0 -121 24.5t-104 70t-73.5 117t-27.5 159.5q0 114 50.5 213 t140.5 159.5t198 60.5q102 0 177.5 -54t117.5 -141l82 182h20l-60 -541q-8 -72 31 -114.5t98 -42.5q85 0 162.5 119.5t77.5 299.5q0 158 -87 293t-234 213.5t-316 78.5q-153 0 -284 -52.5t-225 -146.5t-147 -230.5t-53 -298.5q0 -135 54.5 -256.5t141.5 -204.5t195.5 -131.5 t215.5 -48.5q114 0 222.5 36t187.5 100v-99q-56 -51 -168 -88.5t-242 -37.5q-134 0 -262 55.5t-225.5 151t-157 233t-59.5 290.5zM547 451q0 -113 63.5 -188t165.5 -75q47 0 94 21t88.5 61.5t67.5 110.5t26 157q0 106 -70.5 172t-156.5 66q-135 0 -206.5 -90t-71.5 -235z " />
<glyph unicode="A" horiz-adv-x="1381" d="M47 0v20l143 103l491 1173h23l489 -1175l142 -101v-20h-404v20l143 77l-134 324h-506l-131 -322h10l143 -79v-20h-409zM475 525h422l-214 519z" />
<glyph unicode="B" horiz-adv-x="1131" d="M93 0v20l145 79v1068l-145 79v20h505q75 0 142.5 -20t123.5 -59.5t88.5 -107t32.5 -154.5q0 -93 -65 -168.5t-142 -95.5q45 -9 89.5 -32t83.5 -59t63.5 -89.5t24.5 -115.5q0 -152 -116 -258.5t-316 -106.5h-514zM356 104h260q132 0 216 74t84 185q0 112 -93.5 179 t-228.5 67h-238v-505zM356 713h238q122 0 194 66.5t72 151.5q0 99 -65.5 165t-200.5 66h-238v-449z" />
<glyph unicode="C" horiz-adv-x="1392" d="M93 633q0 136 49 257t135.5 210.5t213.5 141.5t276 52q194 0 352 -104l95 104h20v-361h-22q-150 251 -456 251q-235 0 -386.5 -156t-151.5 -395t151.5 -395t386.5 -156q306 0 456 251h22v-361h-20l-97 104q-163 -104 -350 -104q-149 0 -276 52t-213.5 141.5t-135.5 210.5 t-49 257z" />
<glyph unicode="D" horiz-adv-x="1338" d="M93 0v20l143 77v1072l-143 77v20h449q160 0 292 -46.5t222.5 -130t140 -200.5t49.5 -256q0 -136 -49.5 -252.5t-140 -201t-223 -132t-291.5 -47.5h-449zM356 106h186q259 0 416 144.5t157 382.5q0 243 -156 385t-417 142h-186v-1054z" />
<glyph unicode="E" horiz-adv-x="1105" d="M93 0v20l145 79v1068l-145 79v20h853v-222h-19l-95 121h-476v-463h409l80 87h15v-279h-15l-80 88h-409v-497h486l106 195h18v-296h-873z" />
<glyph unicode="F" horiz-adv-x="1076" d="M93 0v20l145 79v1068l-145 79v20h890v-240h-19l-95 139h-513v-482h409l80 88h15v-278h-15l-80 86h-409v-480l143 -79v-20h-406z" />
<glyph unicode="G" horiz-adv-x="1455" d="M93 633q0 182 83 332.5t236 239.5t346 89q195 0 346 -99l93 99h21v-365h-21q-144 252 -441 255q-156 0 -279 -71t-191 -197t-68 -283t68 -283t191 -197t279 -71q224 0 380 156l-4 265l-175 87v21h424v-21l-135 -87v-531h-21l-86 125q-93 -70 -182.5 -97.5t-198.5 -27.5 q-193 0 -346 89t-236 239.5t-83 332.5z" />
<glyph unicode="H" horiz-adv-x="1426" d="M93 0v20l145 79v1068l-145 79v20h406v-20l-143 -79v-474h718v474l-145 79v20h404v-20l-141 -77v-1072l141 -77v-20h-404v20l145 79v487h-718v-487l143 -79v-20h-406z" />
<glyph unicode="I" horiz-adv-x="592" d="M93 0v20l145 79v1068l-145 79v20h406v-20l-143 -79v-1068l143 -79v-20h-406z" />
<glyph unicode="J" horiz-adv-x="975" d="M74 104v211h21q47 -111 126.5 -172t176.5 -61q54 0 97.5 17t72 45t47.5 67.5t27 82.5t8 91v782l-145 79v20h405v-20l-143 -79h-2v-798q0 -185 -96 -291t-271 -106q-174 0 -324 132z" />
<glyph unicode="K" horiz-adv-x="1318" d="M93 0v20l145 79v1068l-145 79v20h406v-20l-143 -79v-495l540 507l-123 67v20h426v-20l-149 -77l-562 -508l625 -568l140 -73v-20h-430v20l119 66l-586 545v-532l143 -79v-20h-406z" />
<glyph unicode="L" horiz-adv-x="1040" d="M93 0v20l145 79v1068l-145 79v20h406v-20l-143 -79v-1066h486l106 214h18v-315h-873z" />
<glyph unicode="M" horiz-adv-x="1621" d="M74 0v20l142 77l37 1050l-141 104v15h225l475 -711l488 711h217v-15l-147 -104l38 -1050l139 -77v-20h-398v20l136 73l-34 892l-424 -618h-28l-421 618l-39 -892l134 -73v-20h-399z" />
<glyph unicode="N" horiz-adv-x="1485" d="M93 0v20l145 79v1046l-141 110v13h251l797 -972v871l-145 79v20h411v-20l-143 -79v-1195h-17l-890 1087v-960l144 -79v-20h-412z" />
<glyph unicode="O" horiz-adv-x="1474" d="M76 633q0 140 53 264t142.5 210.5t211 136.5t254.5 50q134 0 255.5 -50t210.5 -136.5t142 -210.5t53 -264q0 -183 -89.5 -335.5t-241.5 -239t-330 -86.5t-329.5 86.5t-241.5 239t-90 335.5zM207 633q0 -109 39.5 -209.5t108 -176t168.5 -120.5t214 -45q153 0 276 77 t189 202.5t66 271.5q0 112 -39 213t-108 175.5t-168.5 118.5t-215.5 44q-153 0 -275 -75t-188.5 -200.5t-66.5 -275.5z" />
<glyph unicode="P" horiz-adv-x="1085" d="M93 0v20l145 79v1068l-145 79v20h493q110 0 199 -31.5t145 -85.5t86 -123t30 -147q0 -81 -28.5 -152.5t-83.5 -127.5t-144.5 -88.5t-203.5 -32.5h-230v-379l143 -79v-20h-406zM356 583h236q156 0 241 83t85 205q0 123 -85 207t-241 84h-236v-579z" />
<glyph unicode="Q" horiz-adv-x="1519" d="M93 633q0 140 53 264t142.5 210.5t211 136.5t254.5 50q134 0 255.5 -50t210.5 -136.5t142 -210.5t53 -264q0 -165 -74.5 -306.5t-201.5 -231.5l183 -218l104 -82v-22h-164l-231 259q-129 -60 -277 -60q-178 0 -329.5 86.5t-241.5 239t-90 335.5zM223 633 q0 -146 66.5 -271.5t189.5 -202.5t275 -77q153 0 276 77t189 202.5t66 271.5q0 112 -39 213t-108 175.5t-168.5 118.5t-215.5 44q-115 0 -214.5 -44t-168.5 -119t-108.5 -175.5t-39.5 -212.5z" />
<glyph unicode="R" horiz-adv-x="1225" d="M93 0v20l145 79v1068l-145 79v20h529q165 0 277 -99t112 -258q0 -104 -60 -185t-149 -121.5t-189 -43.5l404 -449l171 -90v-20h-242l-533 633v26h172q134 0 216 65t82 186q0 120 -82 185t-216 65h-229v-1063l152 -77v-20h-415z" />
<glyph unicode="S" horiz-adv-x="971" d="M112 106v177h20q55 -95 150 -147t208 -52q117 0 181 64t64 154q0 39 -7 68t-27.5 56.5t-44.5 48t-73 47t-96 48t-130 57.5q-118 50 -180 130t-62 206q0 144 106.5 237.5t256.5 93.5q104 0 188.5 -29t139.5 -70v-169h-18q-48 71 -132.5 112.5t-175.5 41.5 q-104 0 -171 -60.5t-67 -155.5q0 -34 8.5 -62.5t19.5 -50.5t38 -45t48.5 -39t66.5 -38.5t77 -37t94 -41.5q61 -26 105.5 -55t82.5 -68.5t58 -92.5t20 -119q0 -67 -24.5 -127.5t-71 -109t-122 -77.5t-169.5 -29q-104 0 -199 36t-162 98z" />
<glyph unicode="T" horiz-adv-x="1195" d="M112 1054v212h972v-212h-10l-108 106h-311v-1048l166 -92v-20h-450v20l167 94v1046h-309l-108 -106h-9z" />
<glyph unicode="U" horiz-adv-x="1405" d="M56 1246v20h406v-20l-144 -79v-696q0 -170 107 -279.5t273 -109.5q168 0 279.5 104.5t111.5 273.5v707l-145 79v20h406v-20l-144 -79v-687q0 -233 -143.5 -370.5t-364.5 -137.5t-359 136.5t-138 371.5v687z" />
<glyph unicode="V" horiz-adv-x="1340" d="M28 1246v20h426v-20l-143 -79h-13l383 -945l371 945h-11l-145 79v20h417v-20l-134 -95l-496 -1185h-22l-495 1183z" />
<glyph unicode="W" horiz-adv-x="1854" d="M19 1246v20h413v-20l-143 -79h-13l279 -899l372 1033h6l409 -1033l237 899h-8l-145 79v20h410v-20l-132 -94l-349 -1187h-22l-411 990l-369 -990h-22l-391 1199z" />
<glyph unicode="X" horiz-adv-x="1394" d="M56 0v20l188 123l383 501l-387 494l-179 108v20h213l5 -7v7h224v-20l-144 -79h-9l343 -435l338 441l-134 73v20h429v-20l-185 -105l-380 -499l408 -521l170 -101v-20h-432v20l145 79h2l-360 458l-348 -458l144 -79v-20h-434z" />
<glyph unicode="Y" horiz-adv-x="1312" d="M47 1246v20h404v-20l-125 -69l348 -561l331 566l-117 64v20h378v-20l-119 -73l-423 -668v-391l166 -94v-20h-451v20l168 94v389l-410 646zM661 404l6 4l-2 2z" />
<glyph unicode="Z" horiz-adv-x="1163" d="M93 19l778 1141h-599l-106 -142h-17v248h912l10 -19l-775 -1141h594l128 166h19v-272h-935z" />
<glyph unicode="[" horiz-adv-x="474" d="M102 -428v1741h270v-86h-175v-1570h175v-85h-270z" />
<glyph unicode="\" horiz-adv-x="653" d="M-56 1389l112 -2l653 -1387h-111z" />
<glyph unicode="]" horiz-adv-x="474" d="M102 -343h175v1570h-175v86h270v-1741h-270v85z" />
<glyph unicode="^" horiz-adv-x="990" d="M78 791l415 512l419 -512l-35 -28l-384 341l-381 -341z" />
<glyph unicode="_" horiz-adv-x="899" d="M0 0h899v-101h-899v101z" />
<glyph unicode="`" horiz-adv-x="567" d="M78 1350h216l196 -289h-32z" />
<glyph unicode="a" horiz-adv-x="1027" d="M84 261q0 134 102 209.5t257 75.5q132 0 287 -71v123q0 116 -78.5 182.5t-197.5 66.5q-85 0 -158 -37t-114 -104l-18 9v125q122 115 309 115q170 0 270 -94t100 -260v-502l144 -79v-20h-235l-2 141q-56 -79 -145.5 -124t-198.5 -45q-134 0 -228 77.5t-94 211.5zM205 261 q0 -90 59.5 -135.5t159.5 -45.5q68 0 139.5 31t119 84t47.5 108v73q-131 62 -287 62q-105 0 -171.5 -47t-66.5 -130z" />
<glyph unicode="b" horiz-adv-x="1213" d="M47 1324v17l256 46v-622q58 85 152 137.5t204 52.5q132 0 242 -66.5t172.5 -180t62.5 -246.5q0 -204 -138 -347t-339 -143q-117 0 -211 51t-158 130l-48 -147h-52v1234zM303 464q0 -164 99 -274t257 -110t257 110t99 274q0 163 -99 273t-257 110t-257 -110t-99 -273z" />
<glyph unicode="c" horiz-adv-x="994" d="M78 464q0 133 64 246t175.5 179t244.5 66q53 0 96 -10t65 -20t63 -33l72 63h19v-274h-19q-63 81 -131.5 123.5t-162.5 42.5q-159 0 -262 -110.5t-103 -272.5t103 -273t262 -111q200 0 294 132l19 2l2 -136q-48 -46 -135.5 -76t-181.5 -30h-3q-199 0 -339 144 q-142 144 -142 348z" />
<glyph unicode="d" horiz-adv-x="1208" d="M78 462q0 133 62.5 246.5t172.5 180t242 66.5q202 0 355 -167v452l-143 84v17l257 46v-1288l143 -79v-20h-257v140q-73 -81 -157 -124.5t-198 -43.5q-201 0 -339 143t-138 347zM199 464q0 -164 99 -274t257 -110t256.5 110t98.5 274t-98.5 273.5t-256.5 109.5t-257 -110 t-99 -273z" />
<glyph unicode="e" horiz-adv-x="1072" d="M78 464q0 136 63.5 249.5t170 177.5t230.5 64q191 0 312.5 -133.5t121.5 -363.5v-26h-782q0 -146 106.5 -249t252.5 -103q123 0 196.5 33.5t123.5 93.5l21 -4v-132q-61 -44 -154 -71.5t-193 -27.5q-89 0 -173.5 36t-150 98.5t-105.5 156t-40 201.5zM192 532h655 q0 138 -81 226.5t-226 88.5q-141 0 -244.5 -101t-103.5 -214z" />
<glyph unicode="f" horiz-adv-x="696" d="M84 0v20l145 79v726h-134v100h134v144q0 140 78 226t211 86q98 0 189 -42l4 -138h-18q-69 72 -168 72q-53 0 -90 -18t-56.5 -53.5t-27.5 -78.5t-8 -101v-97h273v-100h-273v-730l156 -75v-20h-415z" />
<glyph unicode="g" horiz-adv-x="1159" d="M78 462q0 133 62.5 246.5t172.5 180t242 66.5q202 0 357 -169v2l82 165h32v-905q0 -229 -130 -353.5t-341 -124.5q-47 0 -94.5 7t-80.5 15.5t-73 24.5t-58.5 25t-52 26.5t-38.5 20.5l-2 117h17q87 -62 174.5 -95t211.5 -33q162 0 257.5 88t95.5 262v113 q-72 -82 -157 -125.5t-200 -43.5q-201 0 -339 143t-138 347zM199 464q0 -164 99 -274t257 -110t256.5 110t98.5 274t-98.5 273.5t-256.5 109.5t-257 -110t-99 -273z" />
<glyph unicode="h" horiz-adv-x="1171" d="M84 9l145 79v1143l-143 82v16l257 47v-561q45 59 122 99.5t170 40.5q163 0 257.5 -100.5t94.5 -295.5v-460l143 -79v-20h-402v20l145 79v469q0 139 -74.5 209t-191.5 70q-243 0 -264 -234v-525l143 -79v-20h-402v20z" />
<glyph unicode="i" horiz-adv-x="536" d="M84 0v20l145 79v709l-143 82v17l257 48v-856l143 -79v-20h-402zM173 1273q0 42 29.5 73.5t71.5 31.5t72 -31.5t30 -73.5q0 -40 -30 -69t-72 -29t-71.5 28.5t-29.5 69.5z" />
<glyph unicode="j" horiz-adv-x="562" d="M-56 -244h22q41 -66 71.5 -93.5t79.5 -27.5q76 0 115.5 56t39.5 164v951l-145 84v15l257 50v-1089q0 -164 -76.5 -247.5t-182.5 -83.5q-117 0 -181 57v164zM218 1273q0 41 29 70t68 29q37 0 66 -29t29 -70q0 -39 -29 -66t-66 -27q-40 0 -68.5 26.5t-28.5 66.5z" />
<glyph unicode="k" horiz-adv-x="1100" d="M74 0v20l146 79v1143l-144 82v17l257 46v-858l402 316l-109 60v20h405v-16l-189 -101l-362 -289l412 -420l167 -79v-20h-242l-484 503v-404l144 -79v-20h-403z" />
<glyph unicode="l" horiz-adv-x="560" d="M74 0v20l146 79v1143l-144 82v17l257 46v-1288l144 -79v-20h-403z" />
<glyph unicode="m" horiz-adv-x="1718" d="M84 0v20l145 79v709l-143 82v17l234 48l11 -134q38 52 113.5 93t160.5 41q104 0 184 -41t120 -117q49 61 125.5 109.5t168.5 48.5q151 0 242 -90t91 -269v-499l141 -77v-20h-398v20l145 79v487q0 74 -23 130t-60.5 85t-77 43t-81.5 14q-102 0 -172 -69t-70 -214v-476 l144 -79v-20h-403v20l146 79v476q0 74 -23 131.5t-60 89t-77.5 47t-81.5 15.5q-101 0 -171.5 -70t-70.5 -213v-476l143 -79v-20h-402z" />
<glyph unicode="n" horiz-adv-x="1171" d="M84 0v20l145 79v709l-143 82v17l234 48l13 -125l2 -24q43 62 123 105.5t177 43.5q163 0 257.5 -100.5t94.5 -295.5v-460l143 -79v-20h-402v20l145 79v469q0 139 -74.5 209t-191.5 70q-243 0 -264 -234v-514l143 -79v-20h-402z" />
<glyph unicode="o" horiz-adv-x="1128" d="M78 464q0 132 64.5 245t177 179.5t244.5 66.5t244.5 -66.5t177 -179.5t64.5 -245q0 -133 -64.5 -246t-176.5 -179.5t-245 -66.5q-202 0 -344 144t-142 348zM199 464q0 -162 103 -273t262 -111t262 111t103 273t-103 272.5t-262 110.5t-262 -110.5t-103 -272.5z" />
<glyph unicode="p" horiz-adv-x="1234" d="M65 -417l145 78h2v1147l-145 82v17l257 48v-190q58 85 152 137.5t204 52.5q132 0 242 -66.5t172 -179.5t62 -247q0 -133 -62 -245.5t-172 -178.5t-242 -66q-112 0 -202.5 46.5t-153.5 119.5v-477l143 -78v-21h-402v21zM324 464q0 -164 99 -274t257 -110t256.5 110 t98.5 274t-98.5 273.5t-256.5 109.5t-257 -110t-99 -273z" />
<glyph unicode="q" horiz-adv-x="1217" d="M78 462q0 133 62.5 246.5t172.5 180t242 66.5q202 0 355 -167v3l82 164h32v-1294l143 -78v-21h-402v21l145 78v479q-73 -81 -157 -124.5t-198 -43.5q-201 0 -339 143t-138 347zM199 464q0 -164 99 -274t257 -110t256.5 110t98.5 274t-98.5 273.5t-256.5 109.5t-257 -110 t-99 -273z" />
<glyph unicode="r" horiz-adv-x="750" d="M84 0v20l145 79v709l-143 82v17l236 48l13 -164q88 164 259 164q55 0 115 -19v-128h-18q-39 39 -129 39q-109 0 -164 -91t-55 -244v-413l175 -79v-20h-434z" />
<glyph unicode="s" horiz-adv-x="804" d="M97 65v144h20q53 -64 126 -96.5t152 -32.5q81 0 139 37.5t58 105.5q0 69 -50 115.5t-175 85.5q-136 43 -199.5 103.5t-63.5 168.5q0 109 85.5 183t223.5 74q130 0 257 -70v-146h-18q-58 51 -116 79.5t-136 28.5q-83 0 -132.5 -40t-49.5 -105q0 -69 51 -105.5t191 -86.5 q135 -48 191 -114.5t56 -155.5q0 -112 -89 -189t-223 -77q-159 0 -298 93z" />
<glyph unicode="t" horiz-adv-x="750" d="M47 825v17l275 283h13v-200h337v-100h-339v-553q0 -97 42 -150t124 -53q85 0 151 91l17 -5v-121q-81 -62 -183 -62q-115 0 -189.5 75.5t-74.5 207.5v570h-173z" />
<glyph unicode="u" horiz-adv-x="1154" d="M41 905v20h257v-568q0 -140 75.5 -215t190.5 -75q126 0 196 73.5t70 216.5v470l-143 78v20h261l-2 -826l143 -79v-20h-244l-9 121q-41 -63 -121.5 -107t-178.5 -44q-163 0 -257.5 101t-94.5 296v460z" />
<glyph unicode="v" horiz-adv-x="1131" d="M19 910v15h407v-20l-143 -78l283 -648l285 651l-138 75v20h400v-15l-132 -83l-404 -862h-22l-404 862z" />
<glyph unicode="w" horiz-adv-x="1534" d="M32 910v15h402v-20l-144 -78h-1l180 -604l300 719h15l281 -694l175 581l-142 76v20h404v-15l-134 -83l-284 -862h-21l-298 722l-303 -722h-26l-272 862z" />
<glyph unicode="x" horiz-adv-x="1128" d="M47 909v16h426v-18l-142 -73l246 -296l238 296l-126 73v18h365v-20l-108 -78l-307 -363l303 -365l140 -80v-19h-410v20l132 71l-242 283l-238 -283l130 -71v-20h-393v20l123 79l315 350l-322 378z" />
<glyph unicode="y" horiz-adv-x="1139" d="M9 910v15h430v-20l-136 -75l293 -664l275 666l-134 73v20h393v-15l-125 -83l-523 -1168l138 -74v-23h-449v23l185 74l150 291l34 82l-382 789z" />
<glyph unicode="z" horiz-adv-x="938" d="M78 13l598 821h-440l-100 -123h-15v214l732 4l7 -15l-603 -821h465l99 117h17v-210h-752z" />
<glyph unicode="{" horiz-adv-x="720" d="M102 449v15l40 12.5t34.5 12t33.5 13.5t26.5 14t25 17.5t17.5 20.5t15.5 26t7 30.5t3.5 37.5v272q0 184 73.5 279t235.5 153l4 -13q-102 -61 -158 -174t-56 -240v-238q0 -70 -31 -136.5t-92 -94.5q61 -28 92 -94.5t31 -136.5v-238q0 -137 55 -243.5t159 -169.5l-4 -13 q-66 24 -111 47t-85 57t-63.5 78t-36.5 106t-13 144v271q0 26 -5.5 47t-12 36t-24.5 29.5t-28.5 22t-39 18.5t-42.5 15.5t-51 16.5z" />
<glyph unicode="|" horiz-adv-x="459" d="M186 -419v1806h88v-1806h-88z" />
<glyph unicode="}" horiz-adv-x="720" d="M102 -426q105 63 160 169.5t55 243.5v238q0 70 30.5 136.5t91.5 94.5q-61 28 -91.5 94.5t-30.5 136.5v238q0 127 -56.5 240t-158.5 174l4 13q162 -58 235.5 -153t73.5 -279v-272q0 -20 3.5 -37.5t7 -30.5t15.5 -26t17.5 -20.5t25 -17.5t26.5 -14t33.5 -13.5t34.5 -12 l40 -12.5v-15q-37 -12 -51 -16.5t-42.5 -15.5t-39 -18.5t-28.5 -22t-24.5 -29.5t-12 -36t-5.5 -47v-271q0 -82 -13 -144t-36.5 -106t-63.5 -78t-85 -57t-111 -47z" />
<glyph unicode="~" horiz-adv-x="975" d="M78 387q5 102 74 177t161 75q55 0 119 -26.5t124.5 -52.5t106.5 -26q62 -1 118 29.5t90 84.5l26 -8q-38 -214 -234 -214q-44 0 -94 16.5t-88 36t-84.5 36t-83.5 16.5q-57 0 -113.5 -45t-95.5 -106z" />
<glyph unicode="&#xa1;" horiz-adv-x="389" d="M102 1173q0 36 26.5 62.5t65.5 26.5q36 0 64.5 -26.5t28.5 -62.5q0 -37 -28.5 -66t-64.5 -29q-38 0 -65 28.5t-27 66.5zM117 -32l65 918h30l60 -918h-155z" />
<glyph unicode="&#xa2;" d="M95 464q0 188 123.5 327.5t306.5 159.5v110h123v-110q69 -9 154 -59l73 63h19v-274h-19q-63 81 -131.5 123.5t-162.5 42.5q-159 0 -262 -110.5t-103 -272.5t103 -273t262 -111q200 0 294 132l19 2l2 -136q-40 -37 -106.5 -64.5t-141.5 -37.5v-103h-123v101 q-120 13 -219 81.5t-155 176.5t-56 232z" />
<glyph unicode="&#xa3;" d="M97 0v22l125 127q36 37 55.5 80.5t23 105t1.5 107t-11 134.5q-1 13 -2 20h-155v100h145q-9 87 -9 188q0 178 115 294t276 116q152 0 277 -76v-140h-22q-39 47 -102 76.5t-142 29.5q-118 0 -199 -80.5t-86 -230.5q-3 -88 6 -177h398v-100h-391q5 -95 7.5 -176.5t-19 -165 t-68.5 -148.5h475l117 166h23v-272h-838z" />
<glyph unicode="&#xa4;" horiz-adv-x="1135" d="M125 112l136 130q-75 101 -75 223q0 123 75 224l-136 130l97 91l134 -135q94 61 212 61t212 -61l134 135l97 -91l-136 -130q75 -101 75 -224q0 -122 -75 -223l136 -130l-97 -92l-134 136q-94 -61 -212 -61t-212 61l-134 -136zM311 465q0 -115 73.5 -190.5t183.5 -75.5 t183.5 75.5t73.5 190.5q0 116 -73 191.5t-184 75.5q-110 0 -183.5 -76t-73.5 -191z" />
<glyph unicode="&#xa5;" d="M37 1244v22h324v-22l-108 -71l272 -514l261 514l-103 71v22h302v-22l-88 -71l-281 -527h216v-93h-259v-136h259v-93h-259v-210l151 -94v-20h-421v20l153 94v210h-268v93h268v136h-268v93h227l-266 527z" />
<glyph unicode="&#xa6;" horiz-adv-x="461" d="M186 382h88v-801h-88v801zM188 512v875h88v-875h-88z" />
<glyph unicode="&#xa7;" horiz-adv-x="971" d="M112 -127h20q55 -95 150 -147t208 -52q117 0 181 64t64 154q0 39 -7 68.5t-27.5 57t-44.5 48t-73 47t-96.5 48.5t-129.5 57q-118 51 -180 130t-62 205q0 110 69 197q-69 83 -69 213q0 144 106.5 237.5t256.5 93.5q104 0 188.5 -29t139.5 -70v-169h-18 q-48 71 -132.5 112.5t-175.5 41.5q-104 0 -171 -60.5t-67 -155.5q0 -34 8.5 -62.5t19.5 -50.5t38 -45t48.5 -39t66.5 -38.5t77 -37t94 -41.5q61 -26 105.5 -55t82.5 -68.5t58 -92.5t20 -119q0 -116 -71 -207q71 -82 71 -203q0 -67 -24.5 -127.5t-71 -109t-122 -77.5 t-169.5 -29q-104 0 -199 36t-162 99v176zM242 555q0 -39 8.5 -70.5t32 -59.5t46.5 -48t71.5 -45.5t85.5 -43t108 -48.5q49 -22 108 -56q33 52 33 118q0 39 -7 68t-27.5 56.5t-44.5 48t-73 47t-96 48t-130 57.5q-52 23 -81 43q-34 -53 -34 -115z" />
<glyph unicode="&#xa8;" horiz-adv-x="722" d="M78 1218q0 43 29 70.5t72 27.5q41 0 69.5 -27.5t28.5 -70.5t-28.5 -71t-69.5 -28q-43 0 -72 28t-29 71zM445 1218q0 43 28.5 70.5t68.5 27.5q44 0 73 -27.5t29 -70.5t-29 -71t-73 -28q-40 0 -68.5 28t-28.5 71z" />
<glyph unicode="&#xa9;" horiz-adv-x="1459" d="M78 633q0 176 87 328t237.5 242.5t327.5 90.5t327.5 -90.5t237 -242.5t86.5 -328t-86.5 -328t-237 -242.5t-327.5 -90.5t-327.5 90.5t-237.5 242.5t-87 328zM173 633q0 -152 75 -284t203.5 -210.5t278.5 -78.5t278.5 78.5t203.5 210.5t75 284t-75 284t-203.5 210.5 t-278.5 78.5t-278.5 -78.5t-203.5 -210.5t-75 -284zM365 627q0 154 106.5 263.5t258.5 109.5q13 0 24.5 -1t21 -1.5t20 -3t17 -4t16.5 -5.5t14 -5.5t14.5 -6.5t13.5 -6.5t14.5 -8t13.5 -7.5l56 49h13v-207h-13q-48 61 -100 93t-123 32q-120 0 -198 -84t-78 -207t78 -205.5 t198 -82.5q149 0 223 99l13 1l2 -102q-37 -35 -103 -57.5t-137 -22.5q-151 -1 -258 108t-107 262z" />
<glyph unicode="&#xaa;" horiz-adv-x="841" d="M84 1076q0 127 90.5 219t216.5 92q56 0 110.5 -27t92.5 -73l82 100h18v-506l107 -79v-20h-207v80q-38 -44 -92.5 -70.5t-110.5 -26.5q-126 0 -216.5 92t-90.5 219zM188 1076q0 -93 56.5 -153.5t146.5 -60.5q87 0 145 61t58 153t-58 153t-145 61q-90 0 -146.5 -60.5 t-56.5 -153.5z" />
<glyph unicode="&#xab;" horiz-adv-x="936" d="M93 465l393 414v-132l-264 -282l264 -281v-132zM432 465l393 414v-132l-265 -282l265 -281v-132z" />
<glyph unicode="&#xac;" horiz-adv-x="1234" d="M84 814v117h1067v-575h-118v458h-949z" />
<glyph unicode="&#xad;" horiz-adv-x="679" d="M84 484v101h512v-101h-512z" />
<glyph unicode="&#xae;" horiz-adv-x="1459" d="M78 633q0 176 87 328t237.5 242.5t327.5 90.5t327.5 -90.5t237 -242.5t86.5 -328t-86.5 -328t-237 -242.5t-327.5 -90.5t-327.5 90.5t-237.5 242.5t-87 328zM173 633q0 -152 75 -284t203.5 -210.5t278.5 -78.5t278.5 78.5t203.5 210.5t75 284t-75 284t-203.5 210.5 t-278.5 78.5t-278.5 -78.5t-203.5 -210.5t-75 -284zM460 292v11l82 45v602l-82 44v11h298q93 0 156 -56t63 -145q0 -87 -64.5 -137t-154.5 -53l221 -260l97 -51v-11h-154l-282 375v14h79q167 0 167 123q0 67 -45 99.5t-122 32.5h-92v-590l86 -43v-11h-253z" />
<glyph unicode="&#xaf;" horiz-adv-x="757" d="M78 1139v99h602v-99h-602z" />
<glyph unicode="&#xb0;" horiz-adv-x="580" d="M78 1087q0 91 60 151t152 60t152.5 -60t60.5 -151t-60.5 -150.5t-152.5 -59.5t-152 59.5t-60 150.5zM155 1087q0 -57 38.5 -96.5t96.5 -39.5t97 39.5t39 96.5t-39 96.5t-97 39.5t-96.5 -39.5t-38.5 -96.5z" />
<glyph unicode="&#xb1;" horiz-adv-x="906" d="M76 63v93h754v-93h-754zM76 555v93h324v303h92v-303h338v-93h-338v-298h-92v298h-324z" />
<glyph unicode="&#xb4;" horiz-adv-x="567" d="M78 1061l196 289h216l-380 -289h-32z" />
<glyph unicode="&#xb6;" horiz-adv-x="1195" d="M76 858q0 105 40 186t108 128t149.5 70.5t172.5 23.5h556v-20l-143 -79v-1586h-117v1579h-131v-1579h-117v858h-39q-72 0 -139.5 15t-129.5 48.5t-108.5 81.5t-74 118.5t-27.5 155.5z" />
<glyph unicode="&#xb7;" horiz-adv-x="389" d="M102 566q0 38 27 66.5t65 28.5q36 0 64.5 -29t28.5 -66q0 -36 -28.5 -62.5t-64.5 -26.5q-39 0 -65.5 26.5t-26.5 62.5z" />
<glyph unicode="&#xb8;" horiz-adv-x="409" d="M78 -374q74 34 109.5 68.5t35.5 80.5q0 78 -104 78l34 147h46l-20 -91q60 0 106 -27.5t46 -82.5t-42.5 -98.5t-97 -65.5t-111.5 -28z" />
<glyph unicode="&#xba;" horiz-adv-x="770" d="M78 1076q0 -127 90.5 -219t216.5 -92t217 92t91 219t-91 219t-217 92t-216.5 -92t-90.5 -219zM182 1076q0 93 56.5 153.5t146.5 60.5t146.5 -60.5t56.5 -153.5t-56.5 -153.5t-146.5 -60.5t-146.5 60.5t-56.5 153.5z" />
<glyph unicode="&#xbb;" horiz-adv-x="936" d="M112 52v132l264 281l-264 282v132l393 -414zM451 52v132l264 281l-264 282v132l392 -414z" />
<glyph unicode="&#xbc;" horiz-adv-x="1556" d="M149 559v16l168 64v489l-168 41v17l244 80h18v-627l149 -64v-16h-411zM410 0l761 1294h104l-761 -1294h-104zM879 184v15l413 508h9v-441h107l-12 -82h-95v-123l99 -50v-11h-292v11l98 50v123h-327zM1039 266h167v218z" />
<glyph unicode="&#xbd;" horiz-adv-x="1640" d="M149 559v16l168 64v489l-168 41v17l244 80h18v-627l149 -64v-16h-411zM410 0l761 1294h104l-761 -1294h-104zM1041 0v22q54 68 145.5 184t124.5 157q72 87 72 153q0 55 -32.5 88t-93.5 33q-110 0 -179 -110h-13v115q74 77 197 77q92 0 156 -50.5t64 -145.5 q0 -48 -24.5 -97.5t-56 -87t-98 -114.5t-113.5 -138h203l85 87h13v-173h-450z" />
<glyph unicode="&#xbe;" horiz-adv-x="1556" d="M149 616v116h13q38 -48 82.5 -71.5t109.5 -23.5q66 0 105.5 32t39.5 89q0 56 -40 88.5t-105 32.5h-69v85h69q63 0 97.5 32.5t34.5 85.5q0 52 -34.5 83.5t-97.5 31.5q-96 0 -164 -71h-11v107q77 52 175 52q97 0 163 -53t66 -145q0 -105 -134 -160q149 -47 149 -167 q0 -98 -72 -155.5t-182 -57.5q-100 0 -195 69zM410 0l761 1294h104l-761 -1294h-104zM879 184v15l413 508h9v-441h107l-12 -82h-95v-123l80 -50v-11h-255v11l80 50v123h-327zM1039 266h167v218z" />
<glyph unicode="&#xbf;" horiz-adv-x="875" d="M102 292q0 60 19.5 111.5t52 90t71.5 74t79.5 71.5t75.5 74.5t60.5 91t32.5 113.5h32q0 -84 -30.5 -159t-73.5 -130.5t-86 -107.5t-73.5 -111t-30.5 -120q0 -101 67 -158.5t167 -57.5q42 0 80 13t64 29t56 46.5t44.5 49t40.5 54.5h23v-165q-69 -61 -142.5 -95t-170.5 -34 q-161 0 -259.5 88.5t-98.5 231.5zM421 1205q0 36 28.5 62.5t64.5 26.5q38 0 64.5 -26t26.5 -63q0 -38 -26.5 -66.5t-64.5 -28.5q-36 0 -64.5 29t-28.5 66z" />
<glyph unicode="&#xc0;" horiz-adv-x="1381" d="M47 0v20l143 103l491 1173h23l489 -1175l142 -101v-20h-404v20l143 77l-134 324h-506l-131 -322h10l143 -79v-20h-409zM404 1685h216l195 -289h-31zM475 525h422l-214 519z" />
<glyph unicode="&#xc1;" horiz-adv-x="1381" d="M47 0v20l143 103l491 1173h23l489 -1175l142 -101v-20h-404v20l143 77l-134 324h-506l-131 -322h10l143 -79v-20h-409zM475 525h422l-214 519zM585 1396l195 289h216l-380 -289h-31z" />
<glyph unicode="&#xc2;" horiz-adv-x="1381" d="M47 0v20l143 103l491 1173h23l489 -1175l142 -101v-20h-404v20l143 77l-134 324h-506l-131 -322h10l143 -79v-20h-409zM404 1398l289 266l292 -266l-32 -18l-260 141l-261 -141zM475 525h422l-214 519z" />
<glyph unicode="&#xc3;" horiz-adv-x="1381" d="M47 0v20l143 103l491 1173h23l489 -1175l142 -101v-20h-404v20l143 77l-134 324h-506l-131 -322h10l143 -79v-20h-409zM411 1469q-1 87 46.5 132t110.5 45q52 0 154.5 -45t141.5 -45q34 0 57 24.5t30 61.5h25q0 -90 -46 -133.5t-111 -43.5q-52 0 -154.5 45t-141.5 45 q-32 0 -55 -24t-32 -62h-25zM475 525h422l-214 519z" />
<glyph unicode="&#xc4;" horiz-adv-x="1381" d="M47 0v20l143 103l491 1173h23l489 -1175l142 -101v-20h-404v20l143 77l-134 324h-506l-131 -322h10l143 -79v-20h-409zM410 1558q0 43 29 71t71 28q41 0 70 -28t29 -71t-29 -70.5t-70 -27.5q-43 0 -71.5 27.5t-28.5 70.5zM475 525h422l-214 519zM776 1558q0 43 28.5 71 t68.5 28q44 0 73.5 -28t29.5 -71t-29.5 -70.5t-73.5 -27.5q-40 0 -68.5 27.5t-28.5 70.5z" />
<glyph unicode="&#xc5;" horiz-adv-x="1381" d="M47 0v20l143 103l491 1173h23l489 -1175l142 -101v-20h-404v20l143 77l-134 324h-506l-131 -322h10l143 -79v-20h-409zM475 525h422l-214 519zM516 1581q0 75 51 122t126 47t125.5 -47t50.5 -122t-50.5 -122.5t-125.5 -47.5t-126 47.5t-51 122.5zM600 1581q0 -41 26 -68 t67 -27t67 27t26 68t-26 68t-67 27t-67 -27t-26 -68z" />
<glyph unicode="&#xc6;" horiz-adv-x="1876" d="M47 0v20l134 73l795 1093l-112 60v20h853v-222h-19l-95 121h-477v-463h410l80 87h15v-279h-15l-80 88h-410v-497h486l106 195h19v-296h-873v20l145 79v238h-506l-179 -246l130 -71v-20h-407zM579 441h430v592z" />
<glyph unicode="&#xc7;" horiz-adv-x="1392" d="M93 633q0 136 49 257t135.5 210.5t213.5 141.5t276 52q194 0 352 -104l95 104h20v-361h-22q-150 251 -456 251q-235 0 -386.5 -156t-151.5 -395t151.5 -395t386.5 -156q306 0 456 251h22v-361h-20l-97 104q-154 -98 -335 -104l-15 -63q60 0 106.5 -27.5t46.5 -82.5 t-42.5 -98.5t-97.5 -65.5t-112 -28l-1 19q74 34 109.5 68.5t35.5 80.5q0 78 -105 78l28 119q-190 8 -337.5 98.5t-226 237.5t-78.5 325z" />
<glyph unicode="&#xc8;" horiz-adv-x="1105" d="M93 0v20l145 79v1068l-145 79v20h853v-222h-19l-95 121h-476v-463h409l80 87h15v-279h-15l-80 88h-409v-497h486l106 195h18v-296h-873zM292 1685h216l196 -289h-32z" />
<glyph unicode="&#xc9;" horiz-adv-x="1105" d="M93 0v20l145 79v1068l-145 79v20h853v-222h-19l-95 121h-476v-463h409l80 87h15v-279h-15l-80 88h-409v-497h486l106 195h18v-296h-873zM473 1396l195 289h216l-379 -289h-32z" />
<glyph unicode="&#xca;" horiz-adv-x="1105" d="M93 0v20l145 79v1068l-145 79v20h853v-222h-19l-95 121h-476v-463h409l80 87h15v-279h-15l-80 88h-409v-497h486l106 195h18v-296h-873zM292 1398l289 266l292 -266l-31 -18l-261 141l-261 -141z" />
<glyph unicode="&#xcb;" horiz-adv-x="1105" d="M93 0v20l145 79v1068l-145 79v20h853v-222h-19l-95 121h-476v-463h409l80 87h15v-279h-15l-80 88h-409v-497h486l106 195h18v-296h-873zM298 1558q0 43 29 71t71 28q41 0 70 -28t29 -71t-29 -70.5t-70 -27.5q-43 0 -71.5 27.5t-28.5 70.5zM665 1558q0 43 28 71t68 28 q44 0 73.5 -28t29.5 -71t-29.5 -70.5t-73.5 -27.5q-40 0 -68 27.5t-28 70.5z" />
<glyph unicode="&#xcc;" horiz-adv-x="592" d="M22 1685h216l196 -289h-32zM93 0v20l145 79v1068l-145 79v20h406v-20l-143 -79v-1068l143 -79v-20h-406z" />
<glyph unicode="&#xcd;" horiz-adv-x="592" d="M93 0v20l145 79v1068l-145 79v20h406v-20l-143 -79v-1068l143 -79v-20h-406zM203 1396l195 289h216l-379 -289h-32z" />
<glyph unicode="&#xce;" horiz-adv-x="592" d="M22 1398l289 266l292 -266l-31 -18l-261 141l-261 -141zM93 0v20l145 79v1068l-145 79v20h406v-20l-143 -79v-1068l143 -79v-20h-406z" />
<glyph unicode="&#xcf;" horiz-adv-x="592" d="M28 1558q0 43 29 71t71 28q41 0 70 -28t29 -71t-29 -70.5t-70 -27.5q-43 0 -71.5 27.5t-28.5 70.5zM93 0v20l145 79v1068l-145 79v20h406v-20l-143 -79v-1068l143 -79v-20h-406zM395 1558q0 43 28.5 71t68.5 28q44 0 73 -28t29 -71t-29 -70.5t-73 -27.5q-40 0 -68.5 27.5 t-28.5 70.5z" />
<glyph unicode="&#xd0;" horiz-adv-x="1338" d="M93 0v20l143 77v437h-134v101h134v534l-143 77v20h449q160 0 292 -46.5t222.5 -130t140 -200.5t49.5 -256q0 -136 -49.5 -252.5t-140 -201t-223 -132t-291.5 -47.5h-449zM356 106h186q259 0 416 144.5t157 382.5q0 243 -156 385t-417 142h-186v-525h258v-101h-258v-428z " />
<glyph unicode="&#xd1;" horiz-adv-x="1485" d="M93 0v20l145 79v1046l-141 110v13h251l797 -972v871l-145 79v20h411v-20l-143 -79v-1195h-17l-890 1087v-960l144 -79v-20h-412zM447 1469q-1 87 46 132t110 45q52 0 154.5 -45t141.5 -45q34 0 57.5 24.5t30.5 61.5h24q0 -90 -45.5 -133.5t-110.5 -43.5q-52 0 -154.5 45 t-141.5 45q-33 0 -56 -24t-32 -62h-24z" />
<glyph unicode="&#xd2;" horiz-adv-x="1474" d="M76 633q0 140 53 264t142.5 210.5t211 136.5t254.5 50q134 0 255.5 -50t210.5 -136.5t142 -210.5t53 -264q0 -183 -89.5 -335.5t-241.5 -239t-330 -86.5t-329.5 86.5t-241.5 239t-90 335.5zM207 633q0 -109 39.5 -209.5t108 -176t168.5 -120.5t214 -45q153 0 276 77 t189 202.5t66 271.5q0 112 -39 213t-108 175.5t-168.5 118.5t-215.5 44q-153 0 -275 -75t-188.5 -200.5t-66.5 -275.5zM449 1685h216l195 -289h-31z" />
<glyph unicode="&#xd3;" horiz-adv-x="1474" d="M76 633q0 140 53 264t142.5 210.5t211 136.5t254.5 50q134 0 255.5 -50t210.5 -136.5t142 -210.5t53 -264q0 -183 -89.5 -335.5t-241.5 -239t-330 -86.5t-329.5 86.5t-241.5 239t-90 335.5zM207 633q0 -109 39.5 -209.5t108 -176t168.5 -120.5t214 -45q153 0 276 77 t189 202.5t66 271.5q0 112 -39 213t-108 175.5t-168.5 118.5t-215.5 44q-153 0 -275 -75t-188.5 -200.5t-66.5 -275.5zM629 1396l196 289h216l-380 -289h-32z" />
<glyph unicode="&#xd4;" horiz-adv-x="1474" d="M76 633q0 140 53 264t142.5 210.5t211 136.5t254.5 50q134 0 255.5 -50t210.5 -136.5t142 -210.5t53 -264q0 -183 -89.5 -335.5t-241.5 -239t-330 -86.5t-329.5 86.5t-241.5 239t-90 335.5zM207 633q0 -109 39.5 -209.5t108 -176t168.5 -120.5t214 -45q153 0 276 77 t189 202.5t66 271.5q0 112 -39 213t-108 175.5t-168.5 118.5t-215.5 44q-153 0 -275 -75t-188.5 -200.5t-66.5 -275.5zM449 1398l288 266l293 -266l-32 -18l-261 141l-260 -141z" />
<glyph unicode="&#xd5;" horiz-adv-x="1474" d="M76 633q0 140 53 264t142.5 210.5t211 136.5t254.5 50q134 0 255.5 -50t210.5 -136.5t142 -210.5t53 -264q0 -183 -89.5 -335.5t-241.5 -239t-330 -86.5t-329.5 86.5t-241.5 239t-90 335.5zM207 633q0 -109 39.5 -209.5t108 -176t168.5 -120.5t214 -45q153 0 276 77 t189 202.5t66 271.5q0 112 -39 213t-108 175.5t-168.5 118.5t-215.5 44q-153 0 -275 -75t-188.5 -200.5t-66.5 -275.5zM456 1469q-1 87 46.5 132t110.5 45q52 0 154.5 -45t141.5 -45q34 0 57 24.5t30 61.5h24q0 -90 -45.5 -133.5t-110.5 -43.5q-52 0 -154.5 45t-141.5 45 q-33 0 -56 -24t-32 -62h-24z" />
<glyph unicode="&#xd6;" horiz-adv-x="1474" d="M76 633q0 140 53 264t142.5 210.5t211 136.5t254.5 50q134 0 255.5 -50t210.5 -136.5t142 -210.5t53 -264q0 -183 -89.5 -335.5t-241.5 -239t-330 -86.5t-329.5 86.5t-241.5 239t-90 335.5zM207 633q0 -109 39.5 -209.5t108 -176t168.5 -120.5t214 -45q153 0 276 77 t189 202.5t66 271.5q0 112 -39 213t-108 175.5t-168.5 118.5t-215.5 44q-153 0 -275 -75t-188.5 -200.5t-66.5 -275.5zM454 1558q0 43 29 71t72 28q41 0 69.5 -28t28.5 -71t-28.5 -70.5t-69.5 -27.5q-43 0 -72 27.5t-29 70.5zM821 1558q0 43 28.5 71t68.5 28q44 0 73 -28 t29 -71t-29 -70.5t-73 -27.5q-40 0 -68.5 27.5t-28.5 70.5z" />
<glyph unicode="&#xd7;" horiz-adv-x="752" d="M76 756l65 65l233 -231l222 222l69 -71l-222 -222l231 -230l-65 -67l-233 232l-221 -221l-69 69l221 221z" />
<glyph unicode="&#xd8;" horiz-adv-x="1474" d="M76 633q0 140 53 264t142.5 210.5t211 136.5t254.5 50q185 0 337 -89l88 126l85 -56l-87 -128q112 -92 175 -224.5t63 -289.5q0 -183 -89.5 -335.5t-241.5 -239t-330 -86.5q-173 0 -324 84l-76 -112l-86 56l77 114q-117 91 -184.5 226.5t-67.5 292.5zM207 633 q0 -123 49.5 -234t138.5 -190l616 901q-120 74 -274 74q-153 0 -275 -75t-188.5 -200.5t-66.5 -275.5zM478 149q115 -67 259 -67q153 0 276 77t189 202.5t66 271.5q0 124 -45.5 232t-129.5 185z" />
<glyph unicode="&#xd9;" horiz-adv-x="1405" d="M56 1246v20h406v-20l-144 -79v-696q0 -170 107 -279.5t273 -109.5q168 0 279.5 104.5t111.5 273.5v707l-145 79v20h406v-20l-144 -79v-687q0 -233 -143.5 -370.5t-364.5 -137.5t-359 136.5t-138 371.5v687zM411 1685h216l196 -289h-32z" />
<glyph unicode="&#xda;" horiz-adv-x="1405" d="M56 1246v20h406v-20l-144 -79v-696q0 -170 107 -279.5t273 -109.5q168 0 279.5 104.5t111.5 273.5v707l-145 79v20h406v-20l-144 -79v-687q0 -233 -143.5 -370.5t-364.5 -137.5t-359 136.5t-138 371.5v687zM592 1396l196 289h216l-380 -289h-32z" />
<glyph unicode="&#xdb;" horiz-adv-x="1405" d="M56 1246v20h406v-20l-144 -79v-696q0 -170 107 -279.5t273 -109.5q168 0 279.5 104.5t111.5 273.5v707l-145 79v20h406v-20l-144 -79v-687q0 -233 -143.5 -370.5t-364.5 -137.5t-359 136.5t-138 371.5v687zM411 1398l289 266l292 -266l-31 -18l-261 141l-261 -141z" />
<glyph unicode="&#xdc;" horiz-adv-x="1405" d="M56 1246v20h406v-20l-144 -79v-696q0 -170 107 -279.5t273 -109.5q168 0 279.5 104.5t111.5 273.5v707l-145 79v20h406v-20l-144 -79v-687q0 -233 -143.5 -370.5t-364.5 -137.5t-359 136.5t-138 371.5v687zM417 1558q0 43 29 71t72 28q41 0 69.5 -28t28.5 -71 t-28.5 -70.5t-69.5 -27.5q-43 0 -72 27.5t-29 70.5zM784 1558q0 43 28.5 71t68.5 28q44 0 73 -28t29 -71t-29 -70.5t-73 -27.5q-40 0 -68.5 27.5t-28.5 70.5z" />
<glyph unicode="&#xdd;" horiz-adv-x="1312" d="M47 1246v20h404v-20l-125 -69l348 -561l331 566l-117 64v20h378v-20l-119 -73l-423 -668v-391l166 -94v-20h-451v20l168 94v389l-410 646zM551 1396l196 289h216l-380 -289h-32zM661 404l6 4l-2 2z" />
<glyph unicode="&#xde;" horiz-adv-x="1167" d="M93 0v20l145 79v1068l-145 79v20h406v-20l-143 -79v-154h301q90 0 167.5 -23t137.5 -67.5t94.5 -118t34.5 -167.5q0 -92 -34.5 -165t-94.5 -118.5t-137.5 -69t-167.5 -23.5h-301v-162l143 -79v-20h-406zM356 365h292q142 0 227.5 72t85.5 200q0 131 -85 201.5t-228 70.5 h-292v-544z" />
<glyph unicode="&#xdf;" horiz-adv-x="1182" d="M84 0v20l145 79v731h-123v101h123v110q0 62 22 122t63.5 111t110.5 82t154 31q170 0 276 -94.5t106 -229.5q0 -41 -11.5 -73t-39 -59t-49.5 -43t-66 -43q-39 -24 -59 -38t-44.5 -36.5t-35 -48t-10.5 -57.5q0 -24 17 -48t50 -47.5t59 -38.5t67 -37q13 -7 19 -10 q61 -32 97.5 -54.5t75 -54.5t56 -68t17.5 -80q0 -102 -85.5 -178.5t-227.5 -76.5q-67 0 -126.5 15.5t-89.5 30t-83 45.5v155h20q123 -138 294 -138q75 0 126 36.5t51 103.5q0 53 -47 93.5t-161 97.5q-42 21 -61.5 31t-52 28.5t-48 31t-36 32t-29.5 37.5t-16 42.5t-7 51.5 q0 75 47 132.5t132 107.5q65 39 100.5 76.5t35.5 89.5q0 88 -69 148t-170 60q-118 0 -188 -74t-70 -201v-1004h-259z" />
<glyph unicode="&#xe0;" horiz-adv-x="1027" d="M84 261q0 134 102 209.5t257 75.5q132 0 287 -71v123q0 116 -78.5 182.5t-197.5 66.5q-85 0 -158 -37t-114 -104l-18 9v125q122 115 309 115q170 0 270 -94t100 -260v-502l144 -79v-20h-235l-2 141q-56 -79 -145.5 -124t-198.5 -45q-134 0 -228 77.5t-94 211.5zM188 1344 h216l196 -288h-32zM205 261q0 -90 59.5 -135.5t159.5 -45.5q68 0 139.5 31t119 84t47.5 108v73q-131 62 -287 62q-105 0 -171.5 -47t-66.5 -130z" />
<glyph unicode="&#xe1;" horiz-adv-x="1027" d="M84 261q0 134 102 209.5t257 75.5q132 0 287 -71v123q0 116 -78.5 182.5t-197.5 66.5q-85 0 -158 -37t-114 -104l-18 9v125q122 115 309 115q170 0 270 -94t100 -260v-502l144 -79v-20h-235l-2 141q-56 -79 -145.5 -124t-198.5 -45q-134 0 -228 77.5t-94 211.5zM205 261 q0 -90 59.5 -135.5t159.5 -45.5q68 0 139.5 31t119 84t47.5 108v73q-131 62 -287 62q-105 0 -171.5 -47t-66.5 -130zM369 1056l195 288h216l-380 -288h-31z" />
<glyph unicode="&#xe2;" horiz-adv-x="1027" d="M84 261q0 134 102 209.5t257 75.5q132 0 287 -71v123q0 116 -78.5 182.5t-197.5 66.5q-85 0 -158 -37t-114 -104l-18 9v125q122 115 309 115q170 0 270 -94t100 -260v-502l144 -79v-20h-235l-2 141q-56 -79 -145.5 -124t-198.5 -45q-134 0 -228 77.5t-94 211.5zM188 1058 l289 266l292 -266l-32 -19l-260 141l-261 -141zM205 261q0 -90 59.5 -135.5t159.5 -45.5q68 0 139.5 31t119 84t47.5 108v73q-131 62 -287 62q-105 0 -171.5 -47t-66.5 -130z" />
<glyph unicode="&#xe3;" horiz-adv-x="1027" d="M84 261q0 134 102 209.5t257 75.5q132 0 287 -71v123q0 116 -78.5 182.5t-197.5 66.5q-85 0 -158 -37t-114 -104l-18 9v125q122 115 309 115q170 0 270 -94t100 -260v-502l144 -79v-20h-235l-2 141q-56 -79 -145.5 -124t-198.5 -45q-134 0 -228 77.5t-94 211.5zM195 1128 q-1 87 46.5 132t110.5 45q52 0 154.5 -44.5t141.5 -44.5q34 0 57 24t30 61h25q0 -90 -46 -133t-111 -43q-52 0 -154.5 44.5t-141.5 44.5q-32 0 -55 -24t-32 -62h-25zM205 261q0 -90 59.5 -135.5t159.5 -45.5q68 0 139.5 31t119 84t47.5 108v73q-131 62 -287 62 q-105 0 -171.5 -47t-66.5 -130z" />
<glyph unicode="&#xe4;" horiz-adv-x="1027" d="M84 261q0 134 102 209.5t257 75.5q132 0 287 -71v123q0 116 -78.5 182.5t-197.5 66.5q-85 0 -158 -37t-114 -104l-18 9v125q122 115 309 115q170 0 270 -94t100 -260v-502l144 -79v-20h-235l-2 141q-56 -79 -145.5 -124t-198.5 -45q-134 0 -228 77.5t-94 211.5zM194 1218 q0 43 28.5 70.5t71.5 27.5q41 0 70 -27.5t29 -70.5t-29 -71t-70 -28q-42 0 -71 28t-29 71zM205 261q0 -90 59.5 -135.5t159.5 -45.5q68 0 139.5 31t119 84t47.5 108v73q-131 62 -287 62q-105 0 -171.5 -47t-66.5 -130zM560 1218q0 43 28.5 70.5t68.5 27.5q44 0 73.5 -27.5 t29.5 -70.5t-29.5 -71t-73.5 -28q-40 0 -68.5 28t-28.5 71z" />
<glyph unicode="&#xe5;" horiz-adv-x="1027" d="M84 261q0 134 102 209.5t257 75.5q132 0 287 -71v123q0 116 -78.5 182.5t-197.5 66.5q-85 0 -158 -37t-114 -104l-18 9v125q122 115 309 115q170 0 270 -94t100 -260v-502l144 -79v-20h-235l-2 141q-56 -79 -145.5 -124t-198.5 -45q-134 0 -228 77.5t-94 211.5zM205 261 q0 -90 59.5 -135.5t159.5 -45.5q68 0 139.5 31t119 84t47.5 108v73q-131 62 -287 62q-105 0 -171.5 -47t-66.5 -130zM300 1240q0 75 51 122t126 47t125.5 -47t50.5 -122t-50.5 -122t-125.5 -47t-126 47t-51 122zM384 1240q0 -41 26 -68t67 -27t67 27t26 68t-26 68t-67 27 t-67 -27t-26 -68z" />
<glyph unicode="&#xe6;" horiz-adv-x="1733" d="M84 261q0 134 105 209.5t260 75.5q131 0 286 -71v123q0 116 -78 182.5t-197 66.5q-86 0 -163 -37t-118 -104l-19 9v125q54 51 137 83t181 32q127 0 217.5 -54t127.5 -153q65 97 165 152t215 55q191 0 312.5 -133.5t121.5 -363.5v-26h-782q0 -146 106.5 -249t252.5 -103 q123 0 196.5 33.5t123.5 93.5l21 -4v-132q-61 -44 -154 -71.5t-193 -27.5q-117 0 -223 59t-171 163q-57 -106 -162 -164t-241 -58q-134 0 -230.5 78t-96.5 211zM205 261q0 -90 62.5 -138.5t162.5 -48.5q117 0 211 71t94 158v73q-48 23 -79 35t-86 22t-121 10 q-105 0 -174.5 -49.5t-69.5 -132.5zM853 532h655q0 138 -81 226.5t-226 88.5q-141 0 -244.5 -101t-103.5 -214z" />
<glyph unicode="&#xe7;" horiz-adv-x="994" d="M78 464q0 133 64 246t175.5 179t244.5 66q53 0 96 -10t65 -20t63 -33l72 63h19v-274h-19q-63 81 -131.5 123.5t-162.5 42.5q-159 0 -262 -110.5t-103 -272.5t103 -273t262 -111q200 0 294 132l19 2l2 -136q-48 -46 -135.5 -76t-181.5 -30q-28 0 -41 2l-15 -65 q60 0 106.5 -27.5t46.5 -82.5t-42.5 -98.5t-97 -65.5t-111.5 -28l-2 19q74 34 109.5 68.5t35.5 80.5q0 78 -104 78l28 127q-171 31 -284 168t-113 316z" />
<glyph unicode="&#xe8;" horiz-adv-x="1072" d="M78 464q0 136 63.5 249.5t170 177.5t230.5 64q191 0 312.5 -133.5t121.5 -363.5v-26h-782q0 -146 106.5 -249t252.5 -103q123 0 196.5 33.5t123.5 93.5l21 -4v-132q-61 -44 -154 -71.5t-193 -27.5q-89 0 -173.5 36t-150 98.5t-105.5 156t-40 201.5zM192 532h655 q0 138 -81 226.5t-226 88.5q-141 0 -244.5 -101t-103.5 -214zM251 1350h216l196 -289h-32z" />
<glyph unicode="&#xe9;" horiz-adv-x="1072" d="M78 464q0 136 63.5 249.5t170 177.5t230.5 64q191 0 312.5 -133.5t121.5 -363.5v-26h-782q0 -146 106.5 -249t252.5 -103q123 0 196.5 33.5t123.5 93.5l21 -4v-132q-61 -44 -154 -71.5t-193 -27.5q-89 0 -173.5 36t-150 98.5t-105.5 156t-40 201.5zM192 532h655 q0 138 -81 226.5t-226 88.5q-141 0 -244.5 -101t-103.5 -214zM432 1061l195 289h216l-379 -289h-32z" />
<glyph unicode="&#xea;" horiz-adv-x="1072" d="M78 464q0 136 63.5 249.5t170 177.5t230.5 64q191 0 312.5 -133.5t121.5 -363.5v-26h-782q0 -146 106.5 -249t252.5 -103q123 0 196.5 33.5t123.5 93.5l21 -4v-132q-61 -44 -154 -71.5t-193 -27.5q-89 0 -173.5 36t-150 98.5t-105.5 156t-40 201.5zM192 532h655 q0 138 -81 226.5t-226 88.5q-141 0 -244.5 -101t-103.5 -214zM251 1063l289 266l292 -266l-31 -19l-261 142l-261 -142z" />
<glyph unicode="&#xeb;" horiz-adv-x="1072" d="M78 464q0 136 63.5 249.5t170 177.5t230.5 64q191 0 312.5 -133.5t121.5 -363.5v-26h-782q0 -146 106.5 -249t252.5 -103q123 0 196.5 33.5t123.5 93.5l21 -4v-132q-61 -44 -154 -71.5t-193 -27.5q-89 0 -173.5 36t-150 98.5t-105.5 156t-40 201.5zM192 532h655 q0 138 -81 226.5t-226 88.5q-141 0 -244.5 -101t-103.5 -214zM257 1223q0 43 29 71t71 28q41 0 70 -28t29 -71t-29 -70.5t-70 -27.5q-43 0 -71.5 27.5t-28.5 70.5zM624 1223q0 43 28.5 71t68.5 28q44 0 73 -28t29 -71t-29 -70.5t-73 -27.5q-40 0 -68.5 27.5t-28.5 70.5z" />
<glyph unicode="&#xec;" horiz-adv-x="558" d="M-11 1350h216l195 -289h-31zM84 890v17l281 46v-854l143 -79v-20h-400v20l143 77v687z" />
<glyph unicode="&#xed;" horiz-adv-x="558" d="M84 890v17l281 46v-854l143 -79v-20h-400v20l143 77v687zM169 1061l196 289h216l-380 -289h-32z" />
<glyph unicode="&#xee;" horiz-adv-x="558" d="M-11 1063l288 266l293 -266l-32 -19l-261 142l-260 -142zM84 890v17l281 46v-854l143 -79v-20h-400v20l143 77v687z" />
<glyph unicode="&#xef;" horiz-adv-x="558" d="M-6 1223q0 43 29 71t72 28q41 0 70 -28t29 -71t-29 -70.5t-70 -27.5q-43 0 -72 27.5t-29 70.5zM84 890v17l281 46v-854l143 -79v-20h-400v20l143 77v687zM361 1223q0 43 28.5 71t68.5 28q44 0 73 -28t29 -71t-29 -70.5t-73 -27.5q-40 0 -68.5 27.5t-28.5 70.5z" />
<glyph unicode="&#xf0;" horiz-adv-x="1113" d="M78 462q0 133 62.5 246.5t172.5 180t242 66.5q161 0 316 -138q-23 87 -92 176t-168 158l-272 -153l-50 73l236 132q-149 80 -307 80v104q222 0 417 -123l218 123l50 -73l-188 -106q147 -119 233.5 -300t86.5 -415q0 -140 -62 -259.5t-173 -190.5t-245 -71 q-201 0 -339 143t-138 347zM199 464q0 -164 99 -274t257 -110t256.5 110t98.5 274t-98.5 273.5t-256.5 109.5t-257 -110t-99 -273z" />
<glyph unicode="&#xf1;" horiz-adv-x="1171" d="M84 0v20l145 79v709l-143 82v17l234 48l13 -125l2 -24q43 62 123 105.5t177 43.5q163 0 257.5 -100.5t94.5 -295.5v-460l143 -79v-20h-402v20l145 79v469q0 139 -74.5 209t-191.5 70q-243 0 -264 -234v-514l143 -79v-20h-402zM317 1134q-1 87 46 132t110 45 q52 0 154.5 -45t141.5 -45q34 0 57 24.5t30 61.5h25q0 -90 -46 -133.5t-111 -43.5q-52 0 -154.5 44.5t-141.5 44.5q-33 0 -55.5 -23.5t-31.5 -61.5h-24z" />
<glyph unicode="&#xf2;" horiz-adv-x="1128" d="M78 464q0 132 64.5 245t177 179.5t244.5 66.5t244.5 -66.5t177 -179.5t64.5 -245q0 -133 -64.5 -246t-176.5 -179.5t-245 -66.5q-202 0 -344 144t-142 348zM199 464q0 -162 103 -273t262 -111t262 111t103 273t-103 272.5t-262 110.5t-262 -110.5t-103 -272.5zM279 1350 h216l196 -289h-32z" />
<glyph unicode="&#xf3;" horiz-adv-x="1128" d="M78 464q0 132 64.5 245t177 179.5t244.5 66.5t244.5 -66.5t177 -179.5t64.5 -245q0 -133 -64.5 -246t-176.5 -179.5t-245 -66.5q-202 0 -344 144t-142 348zM199 464q0 -162 103 -273t262 -111t262 111t103 273t-103 272.5t-262 110.5t-262 -110.5t-103 -272.5zM460 1061 l195 289h216l-379 -289h-32z" />
<glyph unicode="&#xf4;" horiz-adv-x="1128" d="M78 464q0 132 64.5 245t177 179.5t244.5 66.5t244.5 -66.5t177 -179.5t64.5 -245q0 -133 -64.5 -246t-176.5 -179.5t-245 -66.5q-202 0 -344 144t-142 348zM199 464q0 -162 103 -273t262 -111t262 111t103 273t-103 272.5t-262 110.5t-262 -110.5t-103 -272.5zM279 1063 l289 266l292 -266l-31 -19l-261 142l-261 -142z" />
<glyph unicode="&#xf5;" horiz-adv-x="1128" d="M78 464q0 132 64.5 245t177 179.5t244.5 66.5t244.5 -66.5t177 -179.5t64.5 -245q0 -133 -64.5 -246t-176.5 -179.5t-245 -66.5q-202 0 -344 144t-142 348zM199 464q0 -162 103 -273t262 -111t262 111t103 273t-103 272.5t-262 110.5t-262 -110.5t-103 -272.5zM287 1134 q-1 87 46 132t110 45q52 0 154.5 -45t141.5 -45q34 0 57.5 24.5t30.5 61.5h24q0 -90 -46 -133.5t-111 -43.5q-52 0 -154.5 44.5t-141.5 44.5q-33 0 -55.5 -23.5t-31.5 -61.5h-24z" />
<glyph unicode="&#xf6;" horiz-adv-x="1128" d="M78 464q0 132 64.5 245t177 179.5t244.5 66.5t244.5 -66.5t177 -179.5t64.5 -245q0 -133 -64.5 -246t-176.5 -179.5t-245 -66.5q-202 0 -344 144t-142 348zM199 464q0 -162 103 -273t262 -111t262 111t103 273t-103 272.5t-262 110.5t-262 -110.5t-103 -272.5zM285 1223 q0 43 29 71t71 28q41 0 70 -28t29 -71t-29 -70.5t-70 -27.5q-43 0 -71.5 27.5t-28.5 70.5zM652 1223q0 43 28 71t68 28q44 0 73.5 -28t29.5 -71t-29.5 -70.5t-73.5 -27.5q-40 0 -68 27.5t-28 70.5z" />
<glyph unicode="&#xf7;" horiz-adv-x="960" d="M88 482v93h754v-93h-754zM393 261q0 38 26.5 66.5t64.5 28.5q36 0 64.5 -29t28.5 -66q0 -36 -28.5 -63t-64.5 -27q-38 0 -64.5 26.5t-26.5 63.5zM393 780q0 38 26.5 66.5t64.5 28.5q36 0 64.5 -29t28.5 -66q0 -36 -28.5 -62.5t-64.5 -26.5q-38 0 -64.5 26.5t-26.5 62.5z " />
<glyph unicode="&#xf8;" horiz-adv-x="1128" d="M78 464q0 132 64.5 245t177 179.5t244.5 66.5q116 0 211 -48l70 121l86 -51l-71 -124q88 -68 139 -170.5t51 -218.5q0 -133 -64.5 -246t-176.5 -179.5t-245 -66.5q-99 0 -188 37l-76 -132l-86 56l73 127q-97 67 -153 173.5t-56 230.5zM199 464q0 -95 38 -176t106 -133 l378 659q-78 33 -157 33q-159 0 -262 -110.5t-103 -272.5zM430 104q66 -24 134 -24q159 0 262 111t103 273q0 180 -125 294z" />
<glyph unicode="&#xf9;" horiz-adv-x="1154" d="M41 905v20h257v-568q0 -140 75.5 -215t190.5 -75q126 0 196 73.5t70 216.5v470l-143 78v20h261l-2 -826l143 -79v-20h-244l-9 121q-41 -63 -121.5 -107t-178.5 -44q-163 0 -257.5 101t-94.5 296v460zM276 1350h216l195 -289h-32z" />
<glyph unicode="&#xfa;" horiz-adv-x="1154" d="M41 905v20h257v-568q0 -140 75.5 -215t190.5 -75q126 0 196 73.5t70 216.5v470l-143 78v20h261l-2 -826l143 -79v-20h-244l-9 121q-41 -63 -121.5 -107t-178.5 -44q-163 0 -257.5 101t-94.5 296v460zM456 1061l196 289h216l-380 -289h-32z" />
<glyph unicode="&#xfb;" horiz-adv-x="1154" d="M41 905v20h257v-568q0 -140 75.5 -215t190.5 -75q126 0 196 73.5t70 216.5v470l-143 78v20h261l-2 -826l143 -79v-20h-244l-9 121q-41 -63 -121.5 -107t-178.5 -44q-163 0 -257.5 101t-94.5 296v460zM276 1063l288 266l292 -266l-31 -19l-261 142l-261 -142z" />
<glyph unicode="&#xfc;" horiz-adv-x="1154" d="M41 905v20h257v-568q0 -140 75.5 -215t190.5 -75q126 0 196 73.5t70 216.5v470l-143 78v20h261l-2 -826l143 -79v-20h-244l-9 121q-41 -63 -121.5 -107t-178.5 -44q-163 0 -257.5 101t-94.5 296v460zM281 1223q0 43 29 71t72 28q41 0 69.5 -28t28.5 -71t-28.5 -70.5 t-69.5 -27.5q-43 0 -72 27.5t-29 70.5zM648 1223q0 43 28.5 71t68.5 28q44 0 73 -28t29 -71t-29 -70.5t-73 -27.5q-40 0 -68.5 27.5t-28.5 70.5z" />
<glyph unicode="&#xfd;" horiz-adv-x="1139" d="M9 910v15h430v-20l-136 -75l293 -664l275 666l-134 73v20h393v-15l-125 -83l-523 -1168l138 -74v-23h-449v23l185 74l150 291l34 82l-382 789zM469 1061l196 289h216l-380 -289h-32z" />
<glyph unicode="&#xfe;" horiz-adv-x="1234" d="M65 -417l145 78h2v1579l-145 82v17l257 48v-622q58 85 152 137.5t204 52.5q132 0 242 -66.5t172 -179.5t62 -247q0 -133 -62 -245.5t-172 -178.5t-242 -66q-112 0 -202.5 46.5t-153.5 119.5v-477l143 -78v-21h-402v21zM324 464q0 -164 99 -274t257 -110t256.5 110 t98.5 274t-98.5 273.5t-256.5 109.5t-257 -110t-99 -273z" />
<glyph unicode="&#xff;" horiz-adv-x="1139" d="M9 910v15h430v-20l-136 -75l293 -664l275 666l-134 73v20h393v-15l-125 -83l-523 -1168l138 -74v-23h-449v23l185 74l150 291l34 82l-382 789zM294 1223q0 43 29 71t72 28q41 0 69.5 -28t28.5 -71t-28.5 -70.5t-69.5 -27.5q-43 0 -72 27.5t-29 70.5zM661 1223 q0 43 28.5 71t68.5 28q44 0 73 -28t29 -71t-29 -70.5t-73 -27.5q-40 0 -68.5 27.5t-28.5 70.5z" />
<glyph unicode="&#x152;" horiz-adv-x="1765" d="M76 633q0 283 184.5 459t480.5 176h201v-2h663v-222h-19l-95 121h-476v-463h409l80 87h15v-279h-15l-80 88h-409v-497h486l106 195h18v-296h-884q-295 0 -480 177t-185 456zM218 633q0 -238 144 -385t379 -147h156v1064h-156q-236 0 -379.5 -145t-143.5 -387z" />
<glyph unicode="&#x153;" horiz-adv-x="1928" d="M78 464q0 132 64.5 245t177 179.5t244.5 66.5q136 0 249.5 -70t176.5 -187q59 118 169 187.5t239 69.5q191 0 312.5 -133.5t121.5 -363.5v-26h-782q0 -146 106.5 -249t252.5 -103q124 0 197.5 33.5t123.5 93.5l20 -4v-132q-61 -44 -153.5 -71.5t-192.5 -27.5 q-127 0 -240 69t-174 186q-63 -115 -176.5 -185t-249.5 -70q-202 0 -344 144t-142 348zM199 464q0 -162 103 -273t262 -111t262 111t103 273t-103 272.5t-262 110.5t-262 -110.5t-103 -272.5zM1048 532h656q0 138 -81.5 226.5t-226.5 88.5q-141 0 -244.5 -101t-103.5 -214z " />
<glyph unicode="&#x178;" horiz-adv-x="1312" d="M47 1246v20h404v-20l-125 -69l348 -561l331 566l-117 64v20h378v-20l-119 -73l-423 -668v-391l166 -94v-20h-451v20l168 94v389l-410 646zM376 1558q0 43 29 71t72 28q41 0 69.5 -28t28.5 -71t-28.5 -70.5t-69.5 -27.5q-43 0 -72 27.5t-29 70.5zM661 404l6 4l-2 2z M743 1558q0 43 28.5 71t68.5 28q44 0 73 -28t29 -71t-29 -70.5t-73 -27.5q-40 0 -68.5 27.5t-28.5 70.5z" />
<glyph unicode="&#x2c6;" horiz-adv-x="737" d="M78 1095l289 266l292 -266l-32 -19l-260 142l-261 -142z" />
<glyph unicode="&#x2dc;" horiz-adv-x="720" d="M78 1128q-1 87 46.5 132t110.5 45q52 0 154.5 -44.5t141.5 -44.5q34 0 57 24t30 61h24q0 -90 -45.5 -133t-110.5 -43q-52 0 -154.5 44.5t-141.5 44.5q-33 0 -56 -24t-32 -62h-24z" />
<glyph unicode="&#x2000;" horiz-adv-x="875" />
<glyph unicode="&#x2001;" horiz-adv-x="1750" />
<glyph unicode="&#x2002;" horiz-adv-x="875" />
<glyph unicode="&#x2003;" horiz-adv-x="1750" />
<glyph unicode="&#x2004;" horiz-adv-x="583" />
<glyph unicode="&#x2005;" horiz-adv-x="437" />
<glyph unicode="&#x2006;" horiz-adv-x="291" />
<glyph unicode="&#x2007;" horiz-adv-x="291" />
<glyph unicode="&#x2008;" horiz-adv-x="218" />
<glyph unicode="&#x2009;" horiz-adv-x="350" />
<glyph unicode="&#x200a;" horiz-adv-x="97" />
<glyph unicode="&#x2010;" horiz-adv-x="679" d="M84 484v101h512v-101h-512z" />
<glyph unicode="&#x2011;" horiz-adv-x="679" d="M84 484v101h512v-101h-512z" />
<glyph unicode="&#x2012;" horiz-adv-x="679" d="M84 484v101h512v-101h-512z" />
<glyph unicode="&#x2013;" horiz-adv-x="1066" d="M84 484v101h899v-101h-899z" />
<glyph unicode="&#x2014;" horiz-adv-x="1448" d="M84 484v101h1281v-101h-1281z" />
<glyph unicode="&#x2018;" horiz-adv-x="413" d="M61 897q0 101 66 224.5t163 202.5h77q-71 -81 -105 -199.5t-29 -227.5h-172z" />
<glyph unicode="&#x2019;" horiz-adv-x="413" d="M47 802q71 81 105 199.5t29 227.5h171q0 -101 -66 -224.5t-163 -202.5h-76z" />
<glyph unicode="&#x201a;" horiz-adv-x="413" d="M47 -270q71 81 105 199t29 227h171q0 -101 -66 -224t-163 -202h-76z" />
<glyph unicode="&#x201c;" horiz-adv-x="662" d="M80 897q0 101 66 224.5t163 202.5h76q-71 -81 -105 -199.5t-29 -227.5h-171zM404 897q0 101 66 224.5t163 202.5h76q-71 -81 -105 -199.5t-29 -227.5h-171z" />
<glyph unicode="&#x201d;" horiz-adv-x="662" d="M-47 802q71 81 105.5 199.5t29.5 227.5h171q0 -101 -66 -224.5t-163 -202.5h-77zM277 802q71 81 105 199.5t29 227.5h172q0 -101 -66 -224.5t-163 -202.5h-77z" />
<glyph unicode="&#x201e;" horiz-adv-x="696" d="M47 -270q71 81 105 199t29 227h171q0 -101 -66 -224t-163 -202h-76zM330 -270q71 81 105 199t29 227h171q0 -101 -66 -224t-163 -202h-76z" />
<glyph unicode="&#x2022;" horiz-adv-x="389" d="M102 652q0 38 27 66.5t65 28.5q36 0 64.5 -29t28.5 -66q0 -36 -28.5 -63t-64.5 -27q-38 0 -65 27t-27 63z" />
<glyph unicode="&#x2026;" horiz-adv-x="1133" d="M102 61q0 38 27 66.5t65 28.5q36 0 64.5 -29t28.5 -66q0 -36 -28.5 -62.5t-64.5 -26.5q-39 0 -65.5 26.5t-26.5 62.5zM475 61q0 38 26.5 66.5t64.5 28.5q36 0 64.5 -29t28.5 -66q0 -36 -28.5 -62.5t-64.5 -26.5q-38 0 -64.5 26t-26.5 63zM847 61q0 38 26.5 66.5 t64.5 28.5q36 0 64.5 -29t28.5 -66q0 -36 -28.5 -62.5t-64.5 -26.5q-38 0 -64.5 26t-26.5 63z" />
<glyph unicode="&#x202f;" horiz-adv-x="350" />
<glyph unicode="&#x2039;" horiz-adv-x="597" d="M102 465l393 414v-132l-264 -282l264 -281v-132z" />
<glyph unicode="&#x203a;" horiz-adv-x="597" d="M102 52v132l265 281l-265 282v132l393 -414z" />
<glyph unicode="&#x205f;" horiz-adv-x="437" />
<glyph unicode="&#x20ac;" d="M19 471l18 93h158q-1 11 -1 69q0 56 1 67h-139l18 93h133q16 106 55 195.5t98 158.5t144 108t187 39q91 0 153 -25t119 -70v-145h-23q-4 4 -19.5 20t-19.5 20.5t-18.5 18t-21 17.5t-21 14.5t-25 14t-27 10t-32 9t-35 4.5t-41.5 2q-136 0 -225 -108t-116 -283h499l-19 -93 h-491q-2 -22 -2 -67q0 -47 2 -69h473l-19 -93h-443q29 -175 117 -282t224 -107q97 0 157 30.5t126 101.5h18v-126q-73 -59 -115 -79q-76 -37 -175 -37q-135 0 -238.5 68t-163 178t-82.5 253h-188z" />
<glyph unicode="&#x2122;" horiz-adv-x="1156" d="M112 1182v114h394v-114h-22l-67 45h-63v-300l61 -46v-19h-212v19l61 46v300h-63l-67 -45h-22zM566 862v19l58 46l26 263l-69 83v23h99l145 -211l143 211h99v-23l-67 -83l24 -263l58 -46v-19h-175v19l44 44l-18 183l-99 -123h-22l-97 123l-17 -183l45 -44v-19h-177z" />
<glyph unicode="&#x25fc;" horiz-adv-x="921" d="M0 0v922h922v-922h-922z" />
</font>
</defs>
</svg>
